<?xml version="1.0" encoding="UTF-8" standalone="no"?>
<!DOCTYPE svg PUBLIC "-//W3C//DTD SVG 1.1//EN" "http://www.w3.org/Graphics/SVG/1.1/DTD/svg11.dtd">
<svg version="1.1" xmlns="http://www.w3.org/2000/svg" xmlns:xlink="http://www.w3.org/1999/xlink" preserveAspectRatio="xMidYMid meet" viewBox="0 0 512 512" width="100" height="100"><defs><path d="M506 256C506 393.98 393.98 506 256 506C118.02 506 6 393.98 6 256C6 118.03 118.02 6 256 6C393.98 6 506 118.03 506 256Z" id="dfo5SRYrd"></path><path d="M276.99 0.85L287.32 1.9L297.52 3.35L307.59 5.2L317.52 7.44L327.29 10.06L336.91 13.05L346.37 16.41L355.64 20.12L364.74 24.18L373.64 28.57L382.35 33.3L390.85 38.35L399.13 43.72L407.19 49.39L415.02 55.36L422.6 61.62L429.94 68.16L437.02 74.98L443.83 82.06L450.37 89.39L456.64 96.98L462.61 104.8L468.28 112.86L473.64 121.14L478.69 129.64L483.42 138.35L487.82 147.25L491.88 156.35L495.59 165.62L498.95 175.08L501.94 184.7L504.56 194.47L506.8 204.4L508.65 214.47L510.1 224.67L511.15 235L511.78 245.44L512 255.99L511.78 266.55L511.15 276.99L510.1 287.32L508.65 297.52L506.8 307.59L504.56 317.52L501.94 327.29L498.95 336.91L495.59 346.37L491.88 355.64L487.82 364.74L483.43 373.65L478.7 382.35L473.65 390.85L468.28 399.13L462.61 407.19L456.64 415.02L450.38 422.6L443.84 429.94L437.02 437.02L429.94 443.84L422.61 450.38L415.02 456.64L407.19 462.61L399.14 468.28L390.85 473.65L382.36 478.7L373.65 483.43L364.74 487.83L355.65 491.89L346.37 495.6L336.92 498.95L327.3 501.94L317.52 504.56L307.59 506.8L297.52 508.65L287.32 510.11L276.99 511.16L266.55 511.79L255.99 512L245.44 511.79L234.99 511.16L224.67 510.11L214.47 508.65L204.4 506.8L194.47 504.56L184.69 501.94L175.07 498.95L165.62 495.6L156.34 491.89L147.25 487.83L138.34 483.43L129.64 478.7L121.14 473.65L112.86 468.28L104.8 462.61L96.98 456.64L89.39 450.38L82.05 443.84L74.97 437.02L68.16 429.94L61.62 422.6L55.36 415.02L49.39 407.19L43.71 399.13L38.35 390.85L33.3 382.35L28.57 373.65L24.17 364.74L20.11 355.64L16.4 346.37L13.05 336.91L10.06 327.29L7.44 317.52L5.2 307.59L3.35 297.52L1.89 287.32L0.85 276.99L0.21 266.55L0 255.99L0.21 245.44L0.85 235L1.89 224.67L3.35 214.47L5.2 204.4L7.44 194.47L10.06 184.7L13.05 175.08L16.4 165.62L20.11 156.35L24.17 147.25L28.57 138.35L33.3 129.64L38.35 121.14L43.72 112.86L49.39 104.8L55.36 96.98L61.62 89.39L68.16 82.06L74.98 74.98L82.06 68.16L89.39 61.62L96.98 55.36L104.81 49.39L112.86 43.72L121.15 38.35L129.64 33.3L138.35 28.57L147.25 24.18L156.35 20.12L165.63 16.41L175.08 13.05L184.7 10.06L194.47 7.44L204.4 5.2L214.47 3.35L224.67 1.9L235 0.85L245.44 0.22L255.99 0L266.54 0.22L276.99 0.85ZM115.93 327.44L115.78 327.45L115.64 327.46L115.49 327.47L115.35 327.48L115.21 327.5L115.06 327.52L114.92 327.54L114.78 327.57L114.63 327.6L114.49 327.63L114.35 327.66L114.21 327.69L114.07 327.73L113.93 327.77L113.79 327.82L113.65 327.86L113.51 327.91L113.38 327.96L113.24 328.01L113.11 328.07L112.97 328.13L112.84 328.19L112.71 328.25L112.58 328.32L112.45 328.39L112.32 328.46L112.19 328.53L112.07 328.61L111.94 328.69L111.82 328.77L111.7 328.85L111.58 328.94L111.46 329.03L111.35 329.12L111.23 329.21L111.12 329.31L111.01 329.41L110.9 329.51L110.8 329.6L110.69 329.71L110.59 329.81L110.49 329.92L110.4 330.02L110.3 330.13L110.21 330.25L110.12 330.36L110.03 330.48L109.95 330.6L109.86 330.72L109.78 330.84L109.71 330.97L109.63 331.09L109.56 331.22L109.49 331.35L109.42 331.48L109.35 331.61L109.29 331.75L109.23 331.88L109.18 332.02L109.12 332.16L109.07 332.3L109.02 332.44L108.98 332.58L108.93 332.72L108.89 332.86L108.86 333.01L108.82 333.15L108.79 333.3L108.76 333.45L108.74 333.59L108.71 333.74L108.7 333.89L108.68 334.04L108.67 334.19L108.66 334.34L108.65 334.49L108.65 334.64L108.65 334.79L108.65 334.98L108.65 335.17L108.67 335.36L108.68 335.55L108.7 335.74L108.73 335.93L108.76 336.12L108.79 336.3L108.83 336.49L108.88 336.67L108.93 336.85L108.98 337.03L109.04 337.21L109.1 337.39L109.17 337.57L109.24 337.74L109.31 337.91L109.39 338.08L109.47 338.25L109.56 338.42L109.65 338.58L109.74 338.75L109.84 338.91L109.94 339.07L110.04 339.22L110.15 339.38L110.26 339.53L110.37 339.68L110.49 339.83L110.61 339.97L110.73 340.12L110.86 340.26L110.98 340.4L111.12 340.53L111.25 340.66L111.38 340.79L111.52 340.92L111.66 341.05L111.81 341.17L111.95 341.29L114.96 343.88L117.98 346.47L121.02 349.04L124.07 351.59L127.14 354.12L130.24 356.63L133.35 359.11L136.49 361.57L139.65 363.99L142.83 366.38L146.04 368.73L149.27 371.04L152.53 373.31L155.82 375.53L159.14 377.71L162.48 379.83L165.86 381.9L169.27 383.91L172.72 385.87L176.2 387.76L179.71 389.58L183.27 391.34L186.86 393.03L190.48 394.65L194.15 396.18L197.86 397.64L201.61 399.02L205.4 400.32L209.24 401.52L213.12 402.64L217.05 403.66L221.03 404.59L225.05 405.42L229.13 406.14L233.25 406.77L237.43 407.28L241.65 407.69L245.93 407.99L250.27 408.17L254.66 408.23L254.75 408.23L254.83 408.23L254.92 408.23L255.01 408.23L255.09 408.23L255.18 408.23L255.27 408.23L255.35 408.22L255.44 408.22L255.53 408.22L255.61 408.22L255.7 408.22L255.79 408.22L255.88 408.22L255.96 408.22L256.05 408.22L256.14 408.22L256.22 408.21L256.31 408.21L256.4 408.21L256.49 408.21L256.57 408.21L256.66 408.21L256.75 408.21L256.84 408.2L256.92 408.2L257.01 408.2L257.1 408.2L257.19 408.19L257.27 408.19L257.36 408.19L257.45 408.19L257.54 408.19L257.63 408.18L257.71 408.18L257.8 408.18L257.89 408.17L257.98 408.17L258.07 408.17L258.15 408.17L260.97 408.08L263.81 407.95L266.67 407.78L269.53 407.57L272.41 407.31L275.31 407.01L278.21 406.67L281.12 406.29L284.04 405.86L286.97 405.39L289.9 404.89L292.83 404.34L295.77 403.75L298.7 403.12L301.64 402.45L304.57 401.75L307.5 401L310.43 400.22L313.35 399.39L316.27 398.54L319.17 397.64L322.07 396.71L324.95 395.74L327.82 394.73L330.68 393.69L333.52 392.61L336.34 391.5L339.15 390.35L341.94 389.17L344.7 387.95L347.45 386.71L350.17 385.42L352.87 384.11L355.54 382.76L358.18 381.38L360.79 379.97L363.38 378.53L365.93 377.05L368.45 375.55L370.93 374.01L371.12 373.89L371.44 373.69L371.76 373.5L372.09 373.3L372.41 373.1L372.73 372.91L373.06 372.71L373.38 372.5L373.7 372.3L374.02 372.1L374.35 371.89L374.67 371.69L374.99 371.48L375.31 371.27L375.63 371.06L375.95 370.85L376.27 370.63L376.59 370.42L376.91 370.21L377.23 369.99L377.55 369.77L377.87 369.55L378.19 369.33L378.51 369.11L378.82 368.89L379.14 368.66L379.45 368.44L379.77 368.21L380.08 367.98L380.4 367.76L380.71 367.53L381.02 367.29L381.33 367.06L381.64 366.83L381.95 366.59L382.26 366.36L382.57 366.12L382.88 365.88L383.18 365.64L383.49 365.4L383.79 365.16L383.98 365.01L384.17 364.87L384.35 364.71L384.53 364.56L384.7 364.4L384.88 364.24L385.04 364.08L385.21 363.91L385.37 363.74L385.53 363.56L385.68 363.38L385.83 363.2L385.98 363.02L386.12 362.83L386.26 362.64L386.39 362.45L386.52 362.26L386.64 362.06L386.76 361.86L386.88 361.66L386.99 361.46L387.09 361.25L387.19 361.04L387.29 360.83L387.38 360.62L387.46 360.41L387.54 360.19L387.61 359.97L387.68 359.76L387.74 359.54L387.8 359.31L387.85 359.09L387.9 358.87L387.93 358.64L387.97 358.42L387.99 358.19L388.01 357.96L388.03 357.73L388.03 357.5L388.03 357.27L388.02 356.87L387.99 356.48L387.94 356.09L387.88 355.71L387.8 355.34L387.71 354.97L387.6 354.61L387.48 354.26L387.34 353.92L387.19 353.59L387.03 353.26L386.85 352.94L386.67 352.63L386.47 352.33L386.26 352.04L386.04 351.76L385.8 351.49L385.56 351.23L385.31 350.97L385.05 350.73L384.78 350.5L384.5 350.28L384.21 350.06L383.91 349.86L383.61 349.67L383.3 349.49L382.98 349.32L382.66 349.16L382.33 349.02L381.99 348.88L381.65 348.76L381.3 348.65L380.95 348.55L380.6 348.47L380.24 348.39L379.88 348.33L379.51 348.28L379.15 348.25L378.78 348.23L378.41 348.22L378.29 348.22L378.17 348.22L378.05 348.23L377.94 348.23L377.82 348.24L377.7 348.24L377.58 348.25L377.46 348.26L377.35 348.28L377.23 348.29L377.11 348.3L376.99 348.32L376.87 348.34L376.75 348.36L376.63 348.38L376.52 348.4L376.4 348.42L376.28 348.44L376.16 348.47L376.04 348.5L375.92 348.52L375.81 348.55L375.69 348.58L375.57 348.61L375.45 348.65L375.33 348.68L375.22 348.72L375.1 348.76L374.98 348.79L374.87 348.83L374.75 348.87L374.63 348.92L374.52 348.96L374.4 349.01L374.29 349.05L374.17 349.1L374.06 349.15L373.94 349.2L373.83 349.25L373.72 349.3L373.59 349.35L373.46 349.4L373.34 349.45L373.21 349.5L373.08 349.56L372.96 349.61L372.83 349.66L372.7 349.71L372.58 349.77L372.45 349.82L372.32 349.87L372.19 349.93L372.07 349.98L371.94 350.03L371.81 350.09L371.69 350.14L371.56 350.2L371.43 350.25L371.3 350.31L371.18 350.36L371.05 350.42L370.92 350.47L370.8 350.53L370.67 350.58L370.55 350.64L370.42 350.69L370.29 350.75L370.17 350.8L370.04 350.86L369.92 350.91L369.79 350.97L369.67 351.02L369.55 351.08L369.42 351.13L369.3 351.18L369.18 351.24L369.05 351.29L368.93 351.35L368.81 351.4L368.69 351.45L366.29 352.45L363.17 353.69L363.17 353.73L360.62 354.75L358.08 355.75L355.52 356.72L352.96 357.67L350.4 358.61L347.83 359.52L345.26 360.4L342.69 361.27L340.11 362.11L337.53 362.93L334.95 363.73L332.36 364.5L329.78 365.25L327.19 365.98L324.6 366.69L322.01 367.37L319.42 368.02L316.84 368.66L314.25 369.26L311.67 369.85L309.08 370.41L306.5 370.94L303.92 371.46L301.35 371.94L298.77 372.4L296.21 372.84L293.64 373.25L291.08 373.63L288.53 373.99L285.98 374.33L283.43 374.63L280.9 374.92L278.36 375.17L275.84 375.4L273.32 375.6L270.82 375.78L268.32 375.92L265.82 376.05L263.34 376.14L260.87 376.21L260.78 376.21L260.69 376.21L260.6 376.22L260.51 376.22L260.41 376.22L260.32 376.22L260.23 376.22L260.14 376.23L260.05 376.23L259.96 376.23L259.87 376.23L259.78 376.23L259.69 376.24L259.6 376.24L259.51 376.24L259.42 376.24L259.33 376.24L259.24 376.24L259.14 376.24L259.05 376.24L258.96 376.24L258.87 376.24L258.78 376.25L258.69 376.25L258.6 376.25L258.51 376.25L258.42 376.25L258.33 376.25L258.24 376.25L258.15 376.25L258.06 376.25L257.97 376.25L257.88 376.25L257.79 376.25L257.7 376.25L257.61 376.25L257.52 376.25L257.43 376.25L257.25 376.25L253.39 376.2L249.56 376.07L245.77 375.85L242.01 375.55L238.28 375.17L234.59 374.71L230.92 374.18L227.28 373.57L223.67 372.89L220.09 372.13L216.54 371.32L213.01 370.43L209.5 369.49L206.02 368.48L202.56 367.42L199.12 366.3L195.7 365.13L192.31 363.9L188.93 362.63L185.57 361.31L182.22 359.95L178.9 358.54L175.59 357.1L172.29 355.62L169 354.1L165.73 352.55L162.47 350.97L159.22 349.36L155.98 347.72L152.75 346.06L149.53 344.38L146.31 342.68L143.1 340.96L139.9 339.23L136.69 337.48L133.5 335.73L130.3 333.97L127.11 332.2L123.91 330.43L120.72 328.65L120.6 328.59L120.49 328.54L120.38 328.48L120.27 328.42L120.16 328.37L120.04 328.32L119.93 328.27L119.82 328.22L119.71 328.17L119.6 328.12L119.48 328.08L119.37 328.03L119.26 327.99L119.15 327.95L119.03 327.91L118.92 327.88L118.81 327.84L118.7 327.81L118.59 327.77L118.47 327.74L118.36 327.71L118.25 327.68L118.14 327.66L118.02 327.63L117.91 327.61L117.8 327.59L117.69 327.57L117.57 327.55L117.46 327.53L117.35 327.51L117.24 327.5L117.12 327.49L117.01 327.47L116.9 327.46L116.78 327.46L116.67 327.45L116.56 327.44L116.44 327.44L116.33 327.44L116.22 327.44L116.07 327.44L115.93 327.44ZM398.38 315.45L397.96 315.46L397.55 315.47L397.13 315.47L396.71 315.49L396.29 315.5L395.87 315.51L395.44 315.53L395.02 315.55L394.59 315.57L394.16 315.6L393.73 315.62L393.3 315.65L392.86 315.68L392.43 315.71L391.99 315.75L391.55 315.79L391.12 315.83L390.68 315.87L390.24 315.92L389.79 315.96L389.35 316.01L388.91 316.07L388.46 316.12L388.02 316.18L387.57 316.24L387.13 316.3L386.68 316.37L386.23 316.44L385.78 316.51L385.33 316.58L384.88 316.66L384.43 316.74L383.99 316.82L383.53 316.91L383.08 317L382.63 317.09L382.18 317.18L381.73 317.28L381.73 316.87L375.64 318.92L375.54 318.94L372.11 320.06L372.11 320.24L371.81 320.37L371.51 320.49L371.21 320.62L370.91 320.75L370.62 320.88L370.32 321.01L370.03 321.15L369.74 321.28L369.45 321.42L369.16 321.56L368.87 321.7L368.59 321.84L368.3 321.98L368.02 322.13L367.74 322.27L367.45 322.42L367.17 322.57L366.9 322.72L366.62 322.87L366.34 323.03L366.07 323.19L365.79 323.34L365.52 323.5L365.25 323.66L364.98 323.82L364.71 323.99L364.44 324.15L364.17 324.32L363.9 324.49L363.64 324.66L363.37 324.83L363.11 325L362.85 325.18L362.59 325.35L362.33 325.53L362.07 325.71L361.81 325.89L361.55 326.07L361.3 326.25L361.04 326.44L360.89 326.56L360.73 326.68L360.58 326.8L360.42 326.92L360.27 327.05L360.12 327.18L359.98 327.31L359.83 327.44L359.69 327.58L359.55 327.72L359.41 327.86L359.27 328L359.14 328.15L359.01 328.3L358.88 328.45L358.76 328.6L358.64 328.76L358.52 328.92L358.41 329.08L358.3 329.25L358.2 329.42L358.09 329.59L358 329.77L357.9 329.95L357.81 330.13L357.73 330.32L357.65 330.5L357.57 330.7L357.5 330.89L357.43 331.09L357.37 331.3L357.31 331.5L357.26 331.71L357.22 331.93L357.18 332.15L357.14 332.37L357.11 332.6L357.09 332.83L357.07 333.06L357.06 333.3L357.06 333.43L357.06 333.57L357.07 333.7L357.08 333.84L357.09 333.97L357.1 334.11L357.12 334.24L357.15 334.38L357.17 334.52L357.2 334.65L357.23 334.79L357.26 334.93L357.3 335.06L357.34 335.2L357.39 335.33L357.43 335.47L357.48 335.6L357.53 335.73L357.59 335.86L357.65 335.99L357.71 336.12L357.77 336.25L357.84 336.38L357.91 336.51L357.98 336.63L358.06 336.75L358.14 336.88L358.22 337L358.3 337.11L358.39 337.23L358.47 337.34L358.57 337.45L358.66 337.56L358.75 337.67L358.85 337.78L358.95 337.88L359.06 337.98L359.16 338.07L359.27 338.17L359.38 338.26L359.49 338.35L359.6 338.43L359.71 338.51L359.82 338.58L359.94 338.66L360.05 338.73L360.17 338.8L360.28 338.87L360.4 338.93L360.51 338.99L360.63 339.05L360.75 339.11L360.86 339.16L360.98 339.21L361.1 339.26L361.22 339.31L361.34 339.35L361.46 339.39L361.58 339.43L361.7 339.47L361.81 339.51L361.93 339.54L362.05 339.57L362.17 339.6L362.29 339.63L362.41 339.66L362.53 339.68L362.65 339.7L362.77 339.72L362.89 339.74L363.01 339.75L363.12 339.77L363.24 339.78L363.36 339.79L363.48 339.8L363.59 339.81L363.71 339.81L363.82 339.82L363.94 339.82L364.05 339.82L364.08 339.82L364.1 339.82L364.13 339.82L364.16 339.82L364.18 339.82L364.21 339.82L364.24 339.82L364.26 339.82L364.29 339.82L364.32 339.82L364.34 339.82L364.37 339.81L364.39 339.81L364.42 339.81L364.45 339.81L364.47 339.81L364.5 339.81L364.52 339.81L364.55 339.81L364.57 339.81L364.6 339.81L364.62 339.8L364.65 339.8L364.67 339.8L364.69 339.8L364.72 339.8L364.74 339.8L364.77 339.8L364.81 339.79L364.84 339.79L364.86 339.79L364.91 339.79L364.96 339.78L365 339.78L365.05 339.78L365.33 339.76L365.57 339.69L365.79 339.65L366.02 339.6L366.25 339.56L366.49 339.52L366.74 339.47L366.99 339.43L367.24 339.39L367.5 339.35L367.76 339.31L368.03 339.26L368.3 339.22L368.58 339.18L368.86 339.14L369.14 339.1L369.43 339.06L369.73 339.02L370.03 338.98L370.33 338.94L370.63 338.9L370.94 338.86L371.26 338.82L371.58 338.78L371.9 338.73L372.22 338.69L372.55 338.65L372.89 338.61L373.22 338.56L373.56 338.52L373.91 338.47L374.25 338.42L374.6 338.38L374.96 338.33L375.31 338.28L375.67 338.23L376.04 338.18L376.4 338.13L376.77 338.07L377.14 338.02L377.52 337.96L377.9 337.91L378.22 337.87L378.55 337.84L378.88 337.81L379.21 337.78L379.54 337.75L379.87 337.72L380.2 337.69L380.53 337.66L380.86 337.63L381.19 337.6L381.52 337.58L381.85 337.55L382.19 337.52L382.52 337.49L382.85 337.47L383.18 337.44L383.51 337.42L383.84 337.4L384.17 337.37L384.5 337.35L384.83 337.33L385.16 337.31L385.49 337.29L385.81 337.27L386.14 337.25L386.46 337.24L386.79 337.22L387.11 337.21L387.43 337.19L387.75 337.18L388.07 337.17L388.38 337.16L388.7 337.15L389.01 337.14L389.32 337.13L389.63 337.13L389.94 337.12L390.25 337.12L390.55 337.12L390.85 337.12L391.06 337.12L391.27 337.11L391.48 337.12L391.69 337.12L391.9 337.12L392.1 337.12L392.3 337.12L392.51 337.13L392.71 337.13L392.91 337.14L393.1 337.15L393.3 337.15L393.49 337.16L393.69 337.17L393.88 337.18L394.06 337.19L394.25 337.2L394.44 337.22L394.62 337.23L394.8 337.24L394.98 337.26L395.16 337.27L395.33 337.29L395.5 337.31L395.68 337.32L395.84 337.34L396.01 337.36L396.17 337.38L396.33 337.4L396.49 337.42L396.65 337.45L396.8 337.47L396.96 337.5L397.1 337.52L397.25 337.55L397.39 337.57L397.53 337.6L397.67 337.63L397.81 337.66L397.94 337.69L398.01 337.7L398.07 337.72L398.13 337.73L398.2 337.74L398.26 337.76L398.32 337.77L398.38 337.79L398.44 337.8L398.5 337.82L398.55 337.83L398.61 337.84L398.67 337.86L398.72 337.87L398.77 337.89L398.83 337.9L398.88 337.92L398.93 337.93L398.98 337.95L399.03 337.96L399.08 337.97L399.12 337.99L399.17 338L399.22 338.02L399.26 338.03L399.3 338.05L399.35 338.06L399.39 338.07L399.43 338.09L399.47 338.1L399.51 338.12L399.54 338.13L399.58 338.15L399.62 338.16L399.65 338.18L399.68 338.19L399.71 338.2L399.75 338.22L399.78 338.23L399.8 338.25L399.83 338.26L399.84 338.26L399.87 338.28L399.89 338.29L399.91 338.3L399.93 338.31L399.95 338.32L399.97 338.33L399.99 338.34L400 338.35L400.02 338.36L400.04 338.36L400.05 338.37L400.06 338.37L400.07 338.38L400.08 338.38L400.09 338.38L400.1 338.41L400.1 338.43L400.11 338.45L400.12 338.48L400.12 338.5L400.13 338.53L400.14 338.56L400.14 338.59L400.15 338.62L400.16 338.65L400.16 338.69L400.17 338.72L400.18 338.76L400.18 338.79L400.19 338.83L400.19 338.87L400.2 338.91L400.2 338.95L400.21 338.99L400.21 339.04L400.22 339.08L400.22 339.13L400.23 339.17L400.23 339.22L400.24 339.27L400.24 339.32L400.24 339.37L400.25 339.42L400.25 339.48L400.25 339.53L400.26 339.58L400.26 339.64L400.26 339.7L400.26 339.76L400.26 339.82L400.26 339.88L400.26 339.94L400.26 340L400.26 340.07L400.26 340.13L400.26 340.39L400.26 340.65L400.25 340.93L400.23 341.22L400.21 341.52L400.19 341.82L400.16 342.14L400.12 342.46L400.08 342.79L400.04 343.13L399.99 343.48L399.94 343.84L399.88 344.2L399.82 344.57L399.75 344.95L399.68 345.33L399.6 345.72L399.52 346.11L399.44 346.51L399.35 346.92L399.26 347.33L399.17 347.75L399.07 348.17L398.97 348.59L398.86 349.02L398.76 349.45L398.65 349.89L398.53 350.32L398.41 350.76L398.29 351.21L398.17 351.65L398.05 352.1L397.92 352.55L397.79 353L397.65 353.45L397.52 353.9L397.38 354.35L397.24 354.8L397.1 355.25L396.95 355.71L396.81 356.16L396.66 356.62L396.52 357.07L396.37 357.52L396.22 357.98L396.07 358.43L395.92 358.88L395.77 359.33L395.62 359.78L395.46 360.22L395.31 360.67L395.16 361.11L395.01 361.55L394.85 361.99L394.7 362.42L394.55 362.85L394.39 363.28L394.24 363.71L394.09 364.13L393.94 364.55L393.79 364.96L393.64 365.37L393.49 365.78L393.35 366.18L393.2 366.57L393.05 366.97L392.91 367.35L392.77 367.74L392.63 368.11L392.49 368.48L392.35 368.85L392.22 369.21L392.09 369.56L391.96 369.91L391.83 370.25L391.7 370.58L391.58 370.91L391.46 371.23L391.34 371.55L391.22 371.85L391.2 371.92L391.17 371.99L391.14 372.06L391.12 372.13L391.09 372.21L391.07 372.28L391.04 372.35L391.02 372.42L391 372.49L390.97 372.57L390.95 372.64L390.93 372.72L390.91 372.79L390.89 372.86L390.87 372.94L390.85 373.01L390.84 373.09L390.82 373.17L390.8 373.24L390.79 373.32L390.77 373.39L390.76 373.47L390.75 373.55L390.73 373.63L390.72 373.71L390.71 373.78L390.7 373.86L390.69 373.94L390.68 374.02L390.67 374.1L390.66 374.18L390.66 374.26L390.65 374.34L390.65 374.42L390.64 374.5L390.64 374.59L390.64 374.67L390.63 374.75L390.63 374.83L390.63 374.92L390.63 375.04L390.63 375.16L390.63 375.29L390.64 375.42L390.65 375.54L390.66 375.67L390.68 375.8L390.69 375.93L390.71 376.06L390.73 376.19L390.76 376.32L390.79 376.45L390.82 376.58L390.85 376.71L390.88 376.84L390.92 376.97L390.96 377.1L391.01 377.23L391.05 377.35L391.1 377.48L391.16 377.61L391.21 377.74L391.27 377.86L391.33 377.99L391.39 378.12L391.46 378.24L391.52 378.36L391.59 378.48L391.67 378.6L391.74 378.72L391.82 378.84L391.91 378.95L391.99 379.07L392.08 379.18L392.17 379.29L392.26 379.4L392.36 379.51L392.45 379.61L392.56 379.71L392.66 379.81L392.76 379.91L392.87 380L392.97 380.09L393.08 380.18L393.19 380.27L393.3 380.35L393.41 380.43L393.52 380.5L393.63 380.57L393.75 380.65L393.86 380.71L393.98 380.78L394.1 380.84L394.21 380.9L394.33 380.96L394.45 381.01L394.57 381.06L394.69 381.11L394.81 381.16L394.93 381.21L395.05 381.25L395.17 381.29L395.29 381.33L395.41 381.36L395.53 381.39L395.65 381.42L395.77 381.45L395.9 381.48L396.02 381.5L396.14 381.52L396.26 381.54L396.37 381.56L396.49 381.57L396.61 381.59L396.73 381.6L396.85 381.61L396.96 381.61L397.08 381.62L397.19 381.62L397.31 381.62L397.35 381.62L397.51 381.62L397.68 381.61L397.84 381.6L398.01 381.59L398.17 381.58L398.33 381.56L398.49 381.54L398.65 381.51L398.81 381.48L398.96 381.45L399.12 381.42L399.27 381.39L399.42 381.35L399.57 381.31L399.72 381.26L399.87 381.22L400.02 381.17L400.17 381.12L400.31 381.06L400.45 381.01L400.6 380.95L400.74 380.89L400.88 380.83L401.02 380.76L401.16 380.69L401.3 380.62L401.43 380.55L401.57 380.48L401.7 380.4L401.84 380.33L401.97 380.25L402.1 380.17L402.23 380.08L402.36 380L402.49 379.91L402.62 379.82L402.74 379.73L402.87 379.64L402.99 379.55L403.12 379.45L404.25 378.4L405.35 377.31L406.42 376.2L407.44 375.06L408.43 373.9L409.39 372.71L410.31 371.51L411.19 370.29L412.05 369.04L412.86 367.79L413.65 366.51L414.4 365.23L415.12 363.93L415.81 362.63L416.47 361.32L417.09 360L417.69 358.68L418.25 357.36L418.79 356.03L419.3 354.71L419.78 353.39L420.23 352.07L420.65 350.76L421.05 349.46L421.42 348.17L421.77 346.88L422.08 345.61L422.38 344.36L422.65 343.12L422.89 341.89L423.11 340.69L423.31 339.51L423.48 338.35L423.63 337.22L423.76 336.11L423.87 335.03L423.96 333.98L424.02 332.95L424.07 331.97L424.1 331.01L424.06 329.06L424.05 328.81L424.03 328.57L424.02 328.32L424 328.09L423.98 327.85L423.96 327.62L423.94 327.39L423.91 327.16L423.88 326.94L423.85 326.72L423.82 326.5L423.78 326.28L423.75 326.07L423.71 325.86L423.66 325.65L423.62 325.44L423.57 325.24L423.52 325.04L423.47 324.84L423.42 324.65L423.36 324.45L423.31 324.26L423.25 324.07L423.18 323.89L423.12 323.7L423.05 323.52L422.98 323.34L422.91 323.16L422.83 322.99L422.75 322.82L422.67 322.64L422.59 322.47L422.51 322.31L422.42 322.14L422.33 321.97L422.24 321.81L422.14 321.65L422.04 321.49L421.94 321.33L421.84 321.18L421.7 320.96L421.53 320.75L421.42 320.64L421.32 320.53L421.22 320.42L421.11 320.32L421.01 320.22L420.91 320.13L420.8 320.03L420.7 319.94L420.6 319.86L420.49 319.77L420.39 319.69L420.29 319.61L420.19 319.53L420.08 319.46L419.98 319.39L419.88 319.32L419.78 319.25L419.67 319.18L419.57 319.12L419.47 319.06L419.36 318.99L419.26 318.94L419.16 318.88L419.05 318.82L418.95 318.77L418.84 318.71L418.74 318.66L418.64 318.61L418.53 318.56L418.43 318.51L418.32 318.46L418.21 318.41L418.11 318.36L418 318.31L417.89 318.27L417.79 318.22L417.68 318.17L417.57 318.12L417.46 318.08L417.35 318.03L417.02 317.91L416.69 317.79L416.35 317.67L416 317.56L415.65 317.45L415.28 317.34L414.91 317.23L414.54 317.13L414.15 317.03L413.76 316.94L413.37 316.84L412.96 316.75L412.55 316.66L412.14 316.58L411.71 316.5L411.28 316.42L410.85 316.34L410.41 316.27L409.96 316.2L409.5 316.13L409.04 316.07L408.57 316.01L408.1 315.95L407.62 315.89L407.14 315.84L406.65 315.79L406.15 315.75L405.65 315.71L405.14 315.67L404.63 315.63L404.11 315.6L403.58 315.57L403.05 315.54L402.52 315.52L401.98 315.5L401.43 315.48L400.88 315.47L400.33 315.46L399.76 315.45L399.2 315.45L398.79 315.45L398.38 315.45ZM250.62 93.11L247.95 93.34L245.28 93.62L242.61 93.96L239.94 94.35L237.28 94.8L234.63 95.31L231.99 95.87L229.37 96.5L226.77 97.19L224.18 97.95L221.63 98.77L219.1 99.66L216.6 100.61L214.13 101.64L211.7 102.74L209.31 103.91L206.96 105.15L204.65 106.47L202.4 107.86L200.19 109.34L198.04 110.89L195.94 112.53L193.91 114.25L191.93 116.05L190.03 117.94L188.19 119.92L186.42 121.98L184.73 124.13L183.11 126.38L181.57 128.72L180.12 131.15L178.75 133.68L177.48 136.3L176.29 139.03L175.2 141.85L174.21 144.77L173.32 147.8L172.53 150.93L171.84 154.17L171.75 154.58L171.68 154.98L171.63 155.37L171.59 155.74L171.58 156.1L171.58 156.45L171.6 156.78L171.63 157.11L171.68 157.42L171.75 157.73L171.83 158.02L171.92 158.3L172.03 158.57L172.14 158.83L172.27 159.08L172.42 159.32L172.57 159.54L172.73 159.76L172.9 159.97L173.08 160.17L173.26 160.37L173.46 160.55L173.66 160.72L173.87 160.89L174.08 161.04L174.29 161.19L174.51 161.33L174.74 161.47L174.96 161.59L175.19 161.71L175.42 161.82L175.65 161.92L175.88 162.02L176.11 162.11L176.34 162.19L176.56 162.27L176.79 162.34L177.01 162.41L177.23 162.47L177.44 162.52L216.4 167.4L216.71 167.34L217.01 167.27L217.31 167.19L217.59 167.1L217.87 167.01L218.15 166.9L218.41 166.79L218.67 166.66L218.92 166.53L219.16 166.39L219.39 166.24L219.62 166.09L219.84 165.93L220.06 165.76L220.26 165.58L220.46 165.4L220.66 165.21L220.84 165.01L221.02 164.81L221.2 164.61L221.36 164.4L221.52 164.18L221.68 163.96L221.82 163.73L221.96 163.5L222.1 163.27L222.23 163.03L222.35 162.79L222.47 162.55L222.58 162.31L222.68 162.06L222.78 161.81L222.87 161.55L222.96 161.3L223.04 161.04L223.12 160.78L223.19 160.52L223.25 160.26L223.31 160L223.37 159.74L223.65 158.61L223.96 157.5L224.3 156.42L224.67 155.37L225.08 154.35L225.52 153.36L225.98 152.39L226.48 151.45L227 150.54L227.55 149.66L228.13 148.81L228.73 147.98L229.36 147.18L230.01 146.4L230.69 145.66L231.39 144.94L232.11 144.25L232.86 143.58L233.63 142.94L234.41 142.32L235.22 141.74L236.04 141.18L236.88 140.64L237.75 140.13L238.62 139.64L239.52 139.19L240.42 138.75L241.35 138.34L242.28 137.96L243.23 137.6L244.2 137.27L245.17 136.96L246.15 136.67L247.15 136.41L248.16 136.18L249.17 135.96L250.19 135.78L251.22 135.61L252.26 135.47L253.3 135.35L256.08 135.35L256.71 135.36L257.34 135.38L257.98 135.41L258.61 135.46L259.24 135.52L259.88 135.59L260.51 135.68L261.15 135.78L261.78 135.89L262.41 136.01L263.04 136.15L263.67 136.3L264.29 136.46L264.91 136.64L265.53 136.83L266.14 137.04L266.75 137.25L267.35 137.48L267.94 137.72L268.53 137.98L269.12 138.25L269.69 138.53L270.26 138.82L270.83 139.13L271.38 139.45L271.92 139.79L272.46 140.13L272.98 140.49L273.5 140.86L274 141.25L274.5 141.65L274.98 142.06L275.45 142.48L275.91 142.92L276.35 143.37L276.78 143.83L277.2 144.31L277.6 144.8L277.99 145.3L278.36 145.81L278.77 146.45L279.15 147.09L279.52 147.74L279.86 148.4L280.18 149.07L280.48 149.75L280.75 150.44L281.01 151.13L281.26 151.84L281.48 152.54L281.69 153.26L281.88 153.98L282.05 154.71L282.21 155.44L282.36 156.18L282.49 156.92L282.61 157.67L282.72 158.42L282.81 159.17L282.9 159.92L282.97 160.68L283.03 161.44L283.09 162.21L283.13 162.97L283.17 163.73L283.2 164.5L283.22 165.27L283.24 166.03L283.25 166.8L283.26 167.56L283.27 168.32L283.27 169.08L283.27 169.84L283.26 170.6L283.26 171.35L283.25 172.1L283.25 172.85L283.24 173.59L283.24 174.33L283.24 175.06L283.24 180.6L282.56 180.65L281.87 180.7L281.18 180.76L280.49 180.81L279.79 180.86L279.08 180.91L278.37 180.97L277.66 181.02L276.94 181.08L276.22 181.13L275.49 181.19L274.76 181.24L274.03 181.3L273.29 181.36L272.55 181.42L271.81 181.48L271.06 181.54L270.31 181.6L269.56 181.66L268.8 181.73L268.04 181.79L267.28 181.86L266.52 181.93L265.75 182L264.98 182.07L264.21 182.14L263.44 182.22L262.67 182.3L261.89 182.38L261.12 182.46L260.34 182.54L259.56 182.62L258.78 182.71L258 182.8L257.22 182.89L256.44 182.99L255.66 183.08L254.87 183.18L254.09 183.28L253.31 183.39L252.11 183.54L250.91 183.7L249.71 183.87L248.51 184.04L247.31 184.21L246.11 184.38L244.92 184.56L243.72 184.74L242.53 184.93L241.34 185.12L240.16 185.32L238.97 185.53L237.79 185.74L236.62 185.95L235.44 186.17L234.27 186.4L233.11 186.64L231.95 186.88L230.79 187.13L229.64 187.38L228.49 187.65L227.35 187.92L226.22 188.2L225.09 188.49L223.97 188.79L222.85 189.1L221.74 189.41L220.64 189.74L219.54 190.08L218.46 190.42L217.38 190.78L216.31 191.15L215.24 191.53L214.19 191.92L213.15 192.32L212.11 192.73L211.08 193.16L210.07 193.6L209.06 194.05L208.07 194.51L206.15 195.32L204.27 196.17L202.42 197.06L200.6 198L198.82 198.98L197.07 200.01L195.36 201.08L193.69 202.19L192.05 203.35L190.46 204.55L188.9 205.79L187.38 207.08L185.91 208.41L184.48 209.78L183.09 211.19L181.74 212.65L180.44 214.15L179.19 215.69L177.98 217.27L176.82 218.89L175.71 220.56L174.65 222.27L173.63 224.01L172.67 225.81L171.76 227.64L170.9 229.51L170.1 231.42L169.35 233.38L168.65 235.37L168.01 237.41L167.43 239.48L166.91 241.6L166.44 243.75L166.04 245.95L165.69 248.18L165.4 250.46L165.18 252.77L165.02 255.13L164.92 257.52L164.89 259.95L164.94 263L165.09 265.97L165.33 268.86L165.66 271.68L166.09 274.42L166.61 277.08L167.22 279.67L167.91 282.18L168.69 284.61L169.55 286.97L170.49 289.25L171.51 291.46L172.6 293.59L173.78 295.64L175.02 297.62L176.34 299.52L177.73 301.34L179.19 303.08L180.71 304.75L182.3 306.34L183.95 307.86L185.66 309.29L187.43 310.65L189.25 311.94L191.14 313.14L193.07 314.27L195.06 315.32L197.1 316.29L199.18 317.19L201.31 318.01L203.49 318.75L205.71 319.41L207.97 319.99L210.27 320.5L212.6 320.93L214.97 321.28L217.38 321.55L219.81 321.75L222.28 321.87L224.77 321.91L225.6 321.9L226.42 321.9L227.24 321.88L228.05 321.87L228.85 321.84L229.64 321.81L230.43 321.78L231.21 321.74L231.98 321.7L232.75 321.66L233.51 321.6L234.26 321.55L235.01 321.49L235.75 321.42L236.49 321.35L237.21 321.28L237.94 321.2L238.66 321.12L239.37 321.04L240.08 320.95L240.78 320.86L241.48 320.76L242.17 320.66L242.85 320.55L243.54 320.45L244.21 320.34L244.89 320.22L245.56 320.1L246.22 319.98L246.88 319.86L247.54 319.73L248.19 319.6L248.84 319.47L249.49 319.33L250.13 319.19L250.77 319.05L251.41 318.9L252.04 318.76L252.67 318.61L253.3 318.45L254.29 318.13L255.27 317.8L256.24 317.45L257.21 317.09L258.17 316.71L259.13 316.32L260.08 315.91L261.02 315.49L261.96 315.06L262.9 314.61L263.83 314.14L264.76 313.66L265.68 313.16L266.6 312.65L267.52 312.12L268.44 311.57L269.36 311.01L270.27 310.42L271.19 309.82L272.1 309.21L273.01 308.57L273.93 307.92L274.84 307.24L275.76 306.55L276.68 305.84L277.6 305.11L278.52 304.36L279.44 303.59L280.37 302.8L281.3 301.99L282.24 301.15L283.18 300.3L284.12 299.43L285.07 298.53L286.03 297.61L286.99 296.67L287.96 295.71L288.93 294.72L289.91 293.71L290.9 292.68L291.47 293.45L292.01 294.21L292.54 294.94L293.05 295.66L293.54 296.36L294.03 297.04L294.5 297.71L294.96 298.37L295.41 299.02L295.86 299.65L296.3 300.28L296.74 300.89L297.17 301.5L297.61 302.1L298.05 302.7L298.49 303.29L298.93 303.88L299.38 304.47L299.83 305.06L300.3 305.64L300.77 306.23L301.26 306.82L301.76 307.42L302.28 308.01L302.81 308.62L303.36 309.23L303.93 309.85L304.53 310.48L305.14 311.11L305.78 311.76L306.45 312.43L307.14 313.1L307.86 313.79L308.61 314.5L309.4 315.22L310.22 315.96L311.07 316.72L311.97 317.5L312.9 318.3L313.87 319.12L314.13 319.22L314.39 319.32L314.65 319.41L314.91 319.49L315.17 319.57L315.43 319.65L315.69 319.72L315.95 319.78L316.21 319.84L316.46 319.89L316.72 319.93L316.98 319.97L317.23 320.01L317.49 320.04L317.74 320.06L318 320.07L318.25 320.08L318.5 320.09L318.75 320.08L319 320.07L319.25 320.06L319.49 320.04L319.74 320.01L319.98 319.97L320.22 319.93L320.46 319.88L320.7 319.83L320.94 319.76L321.17 319.69L321.41 319.62L321.64 319.53L321.87 319.44L322.09 319.35L322.32 319.24L322.54 319.13L322.76 319.01L322.98 318.88L323.2 318.75L323.41 318.6L323.62 318.45L324.26 317.92L324.92 317.37L325.6 316.8L326.3 316.21L327.02 315.6L327.76 314.98L328.51 314.35L329.28 313.7L330.06 313.04L330.86 312.36L331.66 311.68L332.48 310.98L333.3 310.28L334.13 309.57L334.97 308.86L335.81 308.14L336.65 307.41L337.5 306.69L338.35 305.96L339.2 305.23L340.05 304.49L340.89 303.76L341.73 303.04L342.57 302.31L343.4 301.59L344.22 300.88L345.03 300.17L345.84 299.47L346.63 298.77L347.41 298.09L348.17 297.42L348.92 296.75L349.66 296.1L350.37 295.47L351.07 294.85L351.75 294.24L352.41 293.65L353.04 293.08L353.65 292.53L354.23 292L354.49 291.78L354.73 291.57L354.95 291.35L355.16 291.12L355.35 290.89L355.53 290.65L355.7 290.41L355.85 290.17L355.99 289.93L356.11 289.67L356.22 289.42L356.32 289.16L356.41 288.91L356.48 288.64L356.54 288.38L356.59 288.11L356.63 287.84L356.66 287.57L356.67 287.3L356.68 287.02L356.67 286.75L356.66 286.47L356.63 286.19L356.6 285.92L356.55 285.64L356.5 285.36L356.44 285.08L356.36 284.8L356.28 284.52L356.2 284.24L356.1 283.97L356 283.69L355.88 283.42L355.77 283.14L355.64 282.87L355.51 282.6L355.37 282.33L355.23 282.06L355.08 281.8L354.92 281.54L354.35 280.81L353.78 280.08L353.2 279.36L352.64 278.64L352.07 277.92L351.51 277.2L350.95 276.48L350.39 275.76L349.85 275.03L349.3 274.3L348.77 273.57L348.24 272.82L347.73 272.07L347.22 271.31L346.72 270.54L346.23 269.75L345.75 268.96L345.29 268.15L344.84 267.32L344.4 266.48L343.98 265.63L343.57 264.75L343.17 263.86L342.8 262.94L342.44 262.01L342.1 261.05L341.77 260.07L341.47 259.06L341.19 258.03L340.93 256.97L340.69 255.88L340.47 254.76L340.27 253.62L340.1 252.44L339.95 251.23L339.83 249.98L339.73 248.7L339.66 247.38L339.62 246.03L339.61 244.64L339.61 181.98L339.61 180L339.62 178.04L339.63 176.07L339.65 174.12L339.66 172.18L339.67 170.25L339.67 168.32L339.67 166.41L339.66 164.51L339.63 162.62L339.59 160.74L339.53 158.87L339.46 157.01L339.36 155.17L339.24 153.34L339.1 151.53L338.92 149.73L338.72 147.94L338.48 146.17L338.22 144.41L337.91 142.67L337.57 140.94L337.18 139.24L336.75 137.54L336.28 135.87L335.76 134.21L335.18 132.57L334.56 130.95L333.88 129.35L333.15 127.77L332.35 126.2L331.5 124.66L330.58 123.14L329.6 121.64L328.55 120.16L327.43 118.7L326.24 117.26L324.97 115.85L323.63 114.45L322.2 113.09L320.99 112.01L319.74 110.96L318.46 109.95L317.15 108.97L315.81 108.03L314.44 107.11L313.05 106.23L311.63 105.38L310.2 104.57L308.74 103.78L307.25 103.02L305.75 102.29L304.24 101.6L302.7 100.93L301.16 100.29L299.59 99.68L298.02 99.1L296.44 98.55L294.84 98.03L293.24 97.53L291.63 97.06L290.02 96.62L288.4 96.21L286.78 95.82L285.16 95.46L283.54 95.12L281.92 94.81L280.31 94.52L278.7 94.26L277.09 94.02L275.49 93.81L273.9 93.62L272.32 93.46L270.76 93.31L269.2 93.19L267.66 93.1L266.13 93.02L264.62 92.97L263.13 92.94L261.66 92.93L253.29 92.93L250.62 93.11Z" id="f1TBbNnRTn"></path><path d="M253.31 215.43C236.62 220.32 223.38 230.76 223.38 253.03C223.38 270.43 232.43 282.25 247.75 282.25C249.84 282.25 251.93 281.57 253.31 281.57C262.36 279.48 270.73 273.2 275.59 263.48C283.96 249.55 283.24 237 283.24 221.02C283.24 220.46 283.24 217.68 283.24 212.66C269.32 213.11 259.35 214.03 253.31 215.43Z" id="a5y6Asm24P"></path></defs><g><g><g><use xlink:href="#dfo5SRYrd" opacity="1" fill="#ffffff" fill-opacity="1"></use></g><g><use xlink:href="#f1TBbNnRTn" opacity="1" fill="#000000" fill-opacity="1"></use><g><use xlink:href="#f1TBbNnRTn" opacity="1" fill-opacity="0" stroke="#000000" stroke-width="1" stroke-opacity="0"></use></g></g><g><use xlink:href="#a5y6Asm24P" opacity="1" fill="#000000" fill-opacity="1"></use><g><use xlink:href="#a5y6Asm24P" opacity="1" fill-opacity="0" stroke="#000000" stroke-width="1" stroke-opacity="0"></use></g></g></g></g></svg>