<?xml version="1.0" encoding="UTF-8" standalone="no"?>
<!DOCTYPE svg PUBLIC "-//W3C//DTD SVG 1.1//EN" "http://www.w3.org/Graphics/SVG/1.1/DTD/svg11.dtd">
<svg version="1.1" xmlns="http://www.w3.org/2000/svg" xmlns:xlink="http://www.w3.org/1999/xlink" preserveAspectRatio="xMidYMid meet" viewBox="0 0 100 100" width="100" height="100"><defs><path d="M0 0L100 0L100 100L0 100L0 0Z" id="a2GZG1aicT"></path><path d="M75 50C81.9 50 87.5 55.6 87.5 62.5C87.5 70 87.5 80 87.5 87.5C87.5 94.4 81.9 100 75 100C62.5 100 37.5 100 25 100C18.1 100 12.5 94.4 12.5 87.5C12.5 80 12.5 70 12.5 62.5C12.5 55.6 18.1 50 25 50C37.5 50 62.5 50 75 50Z" id="b1JGEgt283"></path><path d="M25 25L35 25L35 50L25 50L25 25Z" id="a1RyxJT1dw"></path><path d="M65 25L75 25L75 50L65 50L65 25Z" id="d4ovZc6lBb"></path><path d="M75 25C75 38.8 63.8 50 50 50C36.2 50 25 38.8 25 25C25 11.2 36.2 0 50 0C63.8 0 75 11.2 75 25Z" id="g24qbuBLpw"></path><path d="M35 25L65 25L65 50L35 50L35 25Z" id="e8srRrLer9"></path><path d="M65 25C65 33.28 58.28 40 50 40C41.72 40 35 33.28 35 25C35 16.72 41.72 10 50 10C58.28 10 65 16.72 65 25Z" id="crVgLvs3N"></path><path d="M50 93.85C39.65 93.85 31.25 85.4 31.25 75C31.25 64.6 39.65 56.15 50 56.15C60.35 56.15 68.75 64.6 68.75 75C68.75 85.4 60.35 93.85 50 93.85Z" id="e2dg1o1RI4"></path><path d="M50 93.11C40.06 93.11 31.99 85 31.99 75C31.99 65 40.06 56.89 50 56.89C59.94 56.89 68.01 65 68.01 75C68.01 85 59.94 93.11 50 93.11Z" id="b5N4hfLVl7"></path><path d="M44.34 84.61L44.34 75L44.34 65.39L52.54 70.2L60.74 75L52.54 79.81L44.34 84.61Z" id="a7TOamrejJ"></path></defs><g><g><g><use xlink:href="#a2GZG1aicT" opacity="1" fill="#ffffff" fill-opacity="1"></use></g><g><use xlink:href="#b1JGEgt283" opacity="1" fill="#ff1493" fill-opacity="1"></use></g><g><use xlink:href="#a1RyxJT1dw" opacity="1" fill="#ff1493" fill-opacity="1"></use></g><g><use xlink:href="#d4ovZc6lBb" opacity="1" fill="#ff1493" fill-opacity="1"></use></g><g><use xlink:href="#g24qbuBLpw" opacity="1" fill="#ff1493" fill-opacity="1"></use></g><g><use xlink:href="#e8srRrLer9" opacity="1" fill="#ffffff" fill-opacity="1"></use></g><g><use xlink:href="#crVgLvs3N" opacity="1" fill="#ffffff" fill-opacity="1"></use></g><g><use xlink:href="#e2dg1o1RI4" opacity="1" fill="#ffffff" fill-opacity="1"></use><g><use xlink:href="#e2dg1o1RI4" opacity="1" fill-opacity="0" stroke="#000000" stroke-width="1" stroke-opacity="0"></use></g></g><g><use xlink:href="#b5N4hfLVl7" opacity="1" fill="#ff1493" fill-opacity="1"></use><g><use xlink:href="#b5N4hfLVl7" opacity="1" fill-opacity="0" stroke="#000000" stroke-width="1" stroke-opacity="0"></use></g></g><g><use xlink:href="#a7TOamrejJ" opacity="1" fill="#ffffff" fill-opacity="1"></use><g><use xlink:href="#a7TOamrejJ" opacity="1" fill-opacity="0" stroke="#000000" stroke-width="1" stroke-opacity="0"></use></g></g></g></g></svg>