<?xml version="1.0" encoding="UTF-8" standalone="no"?>
<!DOCTYPE svg PUBLIC "-//W3C//DTD SVG 1.1//EN" "http://www.w3.org/Graphics/SVG/1.1/DTD/svg11.dtd">
<svg version="1.1" xmlns="http://www.w3.org/2000/svg" xmlns:xlink="http://www.w3.org/1999/xlink" preserveAspectRatio="xMidYMid meet" viewBox="0 0 100 100" width="100" height="100"><defs><path d="M50 0C22.38 0 0 22.38 0 50C0 77.61 22.38 100 50 100C77.61 100 100 77.61 100 50C100 22.38 77.61 0 50 0Z" id="falc2KkwS"></path><linearGradient id="gradientaPblru2SB" gradientUnits="userSpaceOnUse" x1="50" y1="106.32" x2="50" y2="-8.27"><stop style="stop-color: #ffd879;stop-opacity: 1" offset="9.693999999999999%"></stop><stop style="stop-color: #fccb76;stop-opacity: 1" offset="15.387%"></stop><stop style="stop-color: #f5aa6c;stop-opacity: 1" offset="25.828%"></stop><stop style="stop-color: #e9755e;stop-opacity: 1" offset="39.756%"></stop><stop style="stop-color: #e45f58;stop-opacity: 1" offset="44.897999999999996%"></stop><stop style="stop-color: #d22a9c;stop-opacity: 1" offset="67.857%"></stop><stop style="stop-color: #6968df;stop-opacity: 1" offset="100%"></stop></linearGradient><path d="M52.59 38.17L53.82 38.51L54.99 38.97L56.1 39.54L57.14 40.23L58.1 41.01L58.98 41.89L59.77 42.85L60.45 43.89L61.03 45L61.49 46.17L61.83 47.4L62.03 48.68L62.1 50L62.03 51.31L61.83 52.59L61.49 53.82L61.03 54.99L60.45 56.1L59.77 57.14L58.98 58.1L58.1 58.98L57.14 59.76L56.1 60.45L54.99 61.02L53.82 61.49L52.59 61.82L51.31 62.03L50 62.1L48.68 62.03L47.4 61.82L46.17 61.49L45 61.02L43.89 60.45L42.85 59.76L41.89 58.98L41.01 58.1L40.23 57.14L39.54 56.1L38.97 54.99L38.51 53.82L38.17 52.59L37.96 51.31L37.89 50L37.96 48.68L38.17 47.4L38.51 46.17L38.97 45L39.54 43.89L40.23 42.85L41.01 41.89L41.89 41.01L42.85 40.23L43.89 39.54L45 38.97L46.17 38.51L47.4 38.17L48.68 37.96L50 37.89L51.31 37.96L52.59 38.17ZM47.44 41.52L46.27 41.97L45.18 42.58L44.19 43.32L43.32 44.19L42.58 45.18L41.97 46.27L41.52 47.44L41.24 48.69L41.15 50L41.24 51.3L41.52 52.55L41.97 53.72L42.58 54.81L43.32 55.8L44.19 56.67L45.18 57.42L46.27 58.02L47.44 58.47L48.69 58.75L50 58.84L51.3 58.75L52.55 58.47L53.72 58.02L54.81 57.42L55.8 56.67L56.67 55.8L57.42 54.81L58.02 53.72L58.47 52.55L58.75 51.3L58.85 50L58.75 48.69L58.47 47.44L58.02 46.27L57.42 45.18L56.67 44.19L55.8 43.32L54.81 42.58L53.72 41.97L52.55 41.52L51.3 41.24L50 41.15L48.69 41.24L47.44 41.52Z" id="aVjsHs9zd"></path><path d="M63.84 35.1C63.01 35.1 62.33 35.77 62.33 36.61C62.33 37.44 63.01 38.11 63.84 38.11C64.67 38.11 65.34 37.44 65.34 36.61C65.34 35.77 64.67 35.1 63.84 35.1Z" id="cc7rdq8UE"></path><path d="M61.73 26.39L62.37 26.47L63.01 26.58L63.63 26.72L64.24 26.88L64.84 27.08L65.43 27.31L66 27.56L66.56 27.83L67.1 28.13L67.63 28.46L68.14 28.81L68.63 29.18L69.11 29.58L69.56 29.99L70 30.43L70.41 30.88L70.81 31.36L71.18 31.85L71.53 32.36L71.86 32.89L72.16 33.43L72.44 33.99L72.69 34.57L72.91 35.15L73.11 35.75L73.28 36.36L73.42 36.99L73.53 37.62L73.6 38.26L73.65 38.92L73.67 39.58L73.67 60.42L73.65 61.08L73.6 61.73L73.53 62.37L73.42 63.01L73.28 63.63L73.11 64.24L72.91 64.84L72.69 65.43L72.44 66L72.16 66.56L71.86 67.1L71.53 67.63L71.18 68.14L70.81 68.63L70.41 69.11L70 69.56L69.56 70L69.11 70.41L68.63 70.81L68.14 71.18L67.63 71.53L67.1 71.86L66.56 72.16L66 72.43L65.43 72.69L64.84 72.91L64.24 73.11L63.63 73.27L63.01 73.41L62.37 73.52L61.73 73.6L61.08 73.65L60.42 73.67L39.58 73.67L38.92 73.65L38.26 73.6L37.62 73.52L36.99 73.41L36.36 73.27L35.75 73.11L35.15 72.91L34.57 72.69L33.99 72.43L33.44 72.16L32.89 71.86L32.36 71.53L31.85 71.18L31.36 70.81L30.89 70.41L30.43 70L29.99 69.56L29.58 69.11L29.18 68.63L28.81 68.14L28.46 67.63L28.14 67.1L27.83 66.56L27.56 66L27.31 65.43L27.08 64.84L26.89 64.24L26.72 63.63L26.58 63.01L26.47 62.37L26.39 61.73L26.34 61.08L26.32 60.42L26.32 39.58L26.34 38.92L26.39 38.26L26.47 37.62L26.58 36.99L26.72 36.36L26.89 35.75L27.08 35.15L27.31 34.57L27.56 33.99L27.83 33.43L28.14 32.89L28.46 32.36L28.81 31.85L29.18 31.36L29.58 30.88L29.99 30.43L30.43 29.99L30.89 29.58L31.36 29.18L31.85 28.81L32.36 28.46L32.89 28.13L33.44 27.83L33.99 27.56L34.57 27.31L35.15 27.08L35.75 26.88L36.36 26.72L36.99 26.58L37.62 26.47L38.26 26.39L38.92 26.34L39.58 26.32L60.42 26.32L61.08 26.34L61.73 26.39ZM38.9 29.89L38.24 30.2L37.62 30.52L37.01 30.84L36.43 31.16L35.87 31.48L35.33 31.81L34.82 32.13L34.34 32.46L33.87 32.8L33.43 33.13L33.02 33.47L32.62 33.81L32.26 34.15L31.91 34.49L31.59 34.84L31.29 35.19L31.02 35.54L30.77 35.9L30.54 36.25L30.34 36.61L30.16 36.98L30.01 37.34L29.88 37.71L29.77 38.08L29.69 38.45L29.63 38.82L29.59 39.2L29.58 39.58L29.58 60.42L29.6 60.98L29.64 61.54L29.72 62.09L29.83 62.63L29.96 63.16L30.13 63.67L30.32 64.18L30.53 64.67L30.77 65.15L31.04 65.61L31.33 66.05L31.64 66.48L31.97 66.9L32.33 67.29L32.7 67.66L33.1 68.02L33.51 68.35L33.94 68.66L34.38 68.95L34.85 69.22L35.32 69.46L35.81 69.67L36.32 69.86L36.84 70.03L37.36 70.16L37.9 70.27L38.45 70.35L39.01 70.39L39.58 70.41L60.42 70.41L60.98 70.39L61.54 70.35L62.09 70.27L62.63 70.16L63.16 70.03L63.67 69.86L64.18 69.67L64.67 69.46L65.15 69.22L65.61 68.95L66.06 68.66L66.48 68.35L66.9 68.02L67.29 67.66L67.66 67.29L68.02 66.9L68.35 66.48L68.66 66.05L68.95 65.61L69.22 65.15L69.46 64.67L69.68 64.18L69.87 63.67L70.03 63.16L70.16 62.63L70.27 62.09L70.35 61.54L70.39 60.98L70.41 60.42L70.41 39.58L70.39 39.01L70.35 38.45L70.27 37.9L70.16 37.36L70.03 36.83L69.87 36.32L69.68 35.81L69.46 35.32L69.22 34.84L68.95 34.38L68.66 33.94L68.35 33.51L68.02 33.1L67.66 32.7L67.29 32.33L66.9 31.97L66.48 31.64L66.06 31.33L65.61 31.04L65.15 30.77L64.67 30.53L64.18 30.32L63.67 30.13L63.16 29.96L62.63 29.83L62.09 29.72L61.54 29.64L60.98 29.6L60.42 29.58L39.58 29.58L38.9 29.89Z" id="aQ8fERnis"></path></defs><g><g><g><use xlink:href="#falc2KkwS" opacity="1" fill="url(#gradientaPblru2SB)"></use><g><use xlink:href="#falc2KkwS" opacity="1" fill-opacity="0" stroke="#000000" stroke-width="1" stroke-opacity="0"></use></g></g><g><use xlink:href="#aVjsHs9zd" opacity="1" fill="#ffffff" fill-opacity="1"></use><g><use xlink:href="#aVjsHs9zd" opacity="1" fill-opacity="0" stroke="#000000" stroke-width="1" stroke-opacity="0"></use></g></g><g><use xlink:href="#cc7rdq8UE" opacity="1" fill="#ffffff" fill-opacity="1"></use><g><use xlink:href="#cc7rdq8UE" opacity="1" fill-opacity="0" stroke="#000000" stroke-width="1" stroke-opacity="0"></use></g></g><g><use xlink:href="#aQ8fERnis" opacity="1" fill="#ffffff" fill-opacity="1"></use><g><use xlink:href="#aQ8fERnis" opacity="1" fill-opacity="0" stroke="#000000" stroke-width="1" stroke-opacity="0"></use></g></g></g></g></svg>