<?xml version="1.0" encoding="UTF-8" standalone="no"?>
<!DOCTYPE svg PUBLIC "-//W3C//DTD SVG 1.1//EN" "http://www.w3.org/Graphics/SVG/1.1/DTD/svg11.dtd">
<svg version="1.1" xmlns="http://www.w3.org/2000/svg" xmlns:xlink="http://www.w3.org/1999/xlink" preserveAspectRatio="xMidYMid meet" viewBox="0 0 512 512" width="100" height="100"><defs><path d="M266.99 0.18L272.45 0.39L277.85 0.7L283.21 1.09L288.52 1.58L293.78 2.14L299 2.8L304.16 3.55L309.28 4.38L314.35 5.3L319.37 6.3L324.34 7.4L329.26 8.58L334.13 9.85L338.96 11.2L343.74 12.65L348.47 14.18L353.15 15.8L357.78 17.5L362.36 19.3L366.9 21.18L371.38 23.15L375.82 25.2L380.21 27.35L384.55 29.58L388.84 31.9L393.09 34.3L397.28 36.8L401.43 39.38L405.53 42.05L409.58 44.8L413.58 47.65L417.53 50.58L421.44 53.6L425.29 56.7L429.1 59.9L432.86 63.18L436.57 66.54L440.23 70L443.82 73.53L447.32 77.11L450.73 80.75L454.05 84.44L457.28 88.19L460.42 91.99L463.47 95.85L466.42 99.76L469.29 103.73L472.06 107.75L474.75 111.83L477.34 115.96L479.84 120.15L482.25 124.39L484.57 128.69L486.8 133.04L488.94 137.45L490.98 141.91L492.94 146.43L494.8 151L496.58 155.63L498.26 160.31L499.85 165.05L501.35 169.84L502.76 174.69L504.08 179.59L505.31 184.55L506.45 189.56L507.49 194.63L508.45 199.75L509.31 204.93L510.09 210.16L510.77 215.45L511.36 220.79L511.86 226.19L512.27 231.64L512.59 237.15L512.82 242.71L512.95 248.33L513 254L512.95 259.18L512.82 264.33L512.59 269.45L512.27 274.53L511.86 279.58L511.36 284.6L510.77 289.58L510.09 294.52L509.31 299.44L508.45 304.32L507.49 309.16L506.45 313.97L505.31 318.75L504.08 323.5L502.76 328.21L501.35 332.88L499.85 337.53L498.26 342.14L496.58 346.71L494.8 351.25L492.94 355.76L490.98 360.23L488.94 364.67L486.8 369.08L484.57 373.45L482.25 377.79L479.84 382.1L477.34 386.37L474.75 390.61L472.06 394.81L469.29 398.98L466.42 403.12L463.47 407.22L460.42 411.29L457.28 415.32L454.05 419.32L450.73 423.29L447.32 427.23L443.82 431.13L440.23 434.99L436.57 438.79L432.86 442.5L429.1 446.11L425.29 449.62L421.44 453.04L417.53 456.36L413.58 459.59L409.58 462.72L405.53 465.75L401.43 468.69L397.28 471.52L393.09 474.27L388.84 476.92L384.55 479.47L380.21 481.92L375.82 484.28L371.38 486.54L366.9 488.71L362.36 490.78L357.78 492.75L353.15 494.63L348.47 496.41L343.74 498.09L338.96 499.68L334.13 501.17L329.26 502.57L324.34 503.87L319.37 505.07L314.35 506.18L309.28 507.19L304.16 508.1L299 508.92L293.78 509.64L288.52 510.27L283.21 510.8L277.85 511.23L272.45 511.57L266.99 511.81L261.49 511.95L255.93 512L250.43 511.95L244.98 511.81L239.58 511.57L234.22 511.23L228.91 510.8L223.65 510.27L218.43 509.64L213.27 508.92L208.15 508.1L203.08 507.19L198.06 506.18L193.08 505.07L188.16 503.87L183.28 502.57L178.45 501.17L173.66 499.68L168.93 498.09L164.24 496.41L159.6 494.63L155.01 492.75L150.47 490.78L145.97 488.71L141.52 486.54L137.12 484.28L132.77 481.93L128.46 479.47L124.21 476.92L120 474.27L115.84 471.53L111.72 468.69L107.66 465.76L103.64 462.73L99.67 459.6L95.75 456.37L91.88 453.05L88.05 449.64L84.27 446.12L80.54 442.51L76.86 438.81L73.22 435.01L69.66 431.14L66.18 427.24L62.79 423.3L59.5 419.34L56.29 415.33L53.18 411.3L50.15 407.23L47.22 403.12L44.37 398.99L41.62 394.82L38.96 390.61L36.38 386.37L33.9 382.1L31.51 377.8L29.21 373.46L27 369.08L24.87 364.68L22.84 360.24L20.9 355.76L19.05 351.25L17.29 346.71L15.62 342.14L14.04 337.53L12.55 332.88L11.15 328.21L9.84 323.5L8.63 318.75L7.5 313.97L6.46 309.16L5.51 304.32L4.65 299.44L3.89 294.52L3.21 289.58L2.62 284.6L2.13 279.58L1.72 274.53L1.41 269.45L1.18 264.33L1.05 259.18L1 254L1.04 248.33L1.18 242.71L1.4 237.15L1.71 231.64L2.11 226.19L2.6 220.79L3.18 215.45L3.85 210.16L4.6 204.93L5.45 199.75L6.38 194.63L7.41 189.56L8.52 184.55L9.72 179.59L11.01 174.69L12.39 169.84L13.86 165.05L15.41 160.31L17.06 155.63L18.79 151L20.62 146.43L22.53 141.91L24.53 137.45L26.62 133.04L28.8 128.69L31.07 124.39L33.43 120.15L35.88 115.96L38.41 111.83L41.04 107.75L43.75 103.73L46.55 99.76L49.45 95.85L52.43 91.99L55.5 88.19L58.66 84.44L61.9 80.75L65.24 77.11L68.67 73.53L72.18 70L75.77 66.54L79.4 63.18L83.09 59.9L86.83 56.7L90.62 53.6L94.46 50.58L98.35 47.65L102.3 44.8L106.3 42.05L110.35 39.38L114.45 36.8L118.6 34.3L122.81 31.9L127.06 29.58L131.37 27.35L135.73 25.2L140.15 23.15L144.61 21.18L149.13 19.3L153.7 17.5L158.32 15.8L162.99 14.18L167.71 12.65L172.49 11.2L177.31 9.85L182.19 8.58L187.12 7.4L192.11 6.3L197.14 5.3L202.23 4.38L207.36 3.55L212.55 2.8L217.8 2.14L223.09 1.58L228.43 1.09L233.83 0.7L239.28 0.39L244.78 0.18L250.33 0.04L255.93 0L261.49 0.04L266.99 0.18ZM252.99 55.03L251.53 55.08L250.09 55.15L248.66 55.23L247.25 55.34L245.85 55.47L244.46 55.61L243.09 55.78L241.73 55.96L240.38 56.16L239.04 56.39L237.72 56.63L236.41 56.89L235.12 57.17L233.84 57.47L232.57 57.79L231.32 58.13L230.08 58.49L228.85 58.87L227.63 59.27L226.43 59.68L225.24 60.12L224.07 60.57L222.91 61.05L221.76 61.54L220.62 62.06L219.5 62.59L218.39 63.14L217.3 63.71L216.22 64.3L215.15 64.91L214.09 65.54L213.05 66.19L212.02 66.86L211 67.55L210 68.26L209.01 68.98L208.04 69.73L207.07 70.5L206.12 71.28L205.19 72.08L204.26 72.91L203.35 73.75L202.45 74.6L201.56 75.48L200.69 76.37L199.83 77.28L198.98 78.21L198.14 79.16L197.32 80.13L196.51 81.11L195.71 82.11L194.92 83.13L194.15 84.17L193.39 85.23L192.64 86.3L191.91 87.39L191.18 88.5L190.47 89.63L189.78 90.78L189.09 91.94L188.42 93.12L187.76 94.32L187.11 95.54L186.48 96.78L185.86 98.03L185.25 99.31L184.65 100.6L184.07 101.91L183.5 103.24L182.94 104.58L182.4 105.95L181.86 107.33L181.34 108.73L180.83 110.15L180.34 111.58L179.86 113.04L179.39 114.51L178.93 116L178.48 117.5L178.04 119L177.61 120.5L177.19 122L176.77 123.5L176.36 125L175.95 126.5L175.56 128L175.17 129.5L174.79 131L174.41 132.5L174.05 134L173.69 135.5L173.33 137L172.99 138.5L172.65 140L172.32 141.5L171.99 143L171.68 144.5L171.37 146L171.07 147.5L170.77 149L170.48 150.5L170.2 152L169.93 153.5L169.67 155L169.41 156.5L169.16 158L168.91 159.5L168.68 161L168.45 162.5L168.23 164L168.01 165.5L167.8 167L167.6 168.5L167.41 170L167.22 171.5L167.05 173L166.88 174.5L166.71 176L166.56 177.51L166.4 179.03L166.25 180.57L166.11 182.13L165.97 183.7L165.83 185.29L165.7 186.9L165.57 188.52L165.44 190.16L165.32 191.81L165.2 193.48L165.09 195.17L164.98 196.87L164.87 198.59L164.77 200.33L164.67 202.08L164.58 203.85L164.49 205.63L164.4 207.43L164.32 209.25L164.24 211.08L164.17 212.93L164.1 214.8L164.03 216.68L163.97 218.58L163.91 220.49L163.86 222.42L163.81 224.37L163.76 226.33L163.72 228.31L163.68 230.31L163.65 232.32L163.62 234.34L163.59 236.39L163.57 238.45L163.55 240.52L163.54 242.62L163.53 244.73L163.52 246.85L163.52 248.99L163.52 250.34L163.52 251.67L163.53 252.99L163.53 254.31L163.54 255.61L163.54 256.9L163.55 258.18L163.56 259.45L163.57 260.71L163.59 261.96L163.6 263.2L163.62 264.43L163.63 265.64L163.65 266.85L163.67 268.05L163.69 269.23L163.71 270.41L163.74 271.57L163.76 272.73L163.79 273.87L163.81 275L163.84 276.12L163.87 277.23L163.9 278.33L163.94 279.42L163.97 280.5L164.01 281.57L164.04 282.63L164.08 283.68L164.12 284.71L164.16 285.74L164.2 286.75L164.24 287.76L164.29 288.75L164.33 289.74L164.38 290.71L164.43 291.67L164.48 292.62L164.53 293.57L164.58 294.5L164.63 295.43L164.69 296.37L164.74 297.32L164.8 298.28L164.86 299.25L164.92 300.23L164.99 301.22L165.06 302.22L165.12 303.23L165.2 304.25L165.27 305.28L165.34 306.32L165.42 307.37L165.5 308.43L165.58 309.5L165.67 310.58L165.75 311.67L165.84 312.77L165.93 313.88L166.02 315L166.12 316.13L166.21 317.27L166.31 318.42L166.41 319.58L166.51 320.75L166.62 321.93L166.73 323.12L166.83 324.32L166.94 325.53L167.06 326.75L167.17 327.98L167.29 329.22L167.41 330.47L167.53 331.72L167.65 332.99L167.78 334.27L167.9 335.56L168.03 336.86L168.17 338.17L168.3 339.49L168.43 340.81L168.57 342.12L168.71 343.41L168.86 344.7L169.01 345.98L169.16 347.25L169.32 348.5L169.48 349.75L169.65 350.98L169.82 352.21L170 353.42L170.17 354.62L170.36 355.81L170.54 356.99L170.73 358.17L170.93 359.33L171.13 360.48L171.33 361.61L171.54 362.74L171.75 363.86L171.96 364.97L172.18 366.06L172.4 367.15L172.63 368.22L172.86 369.29L173.1 370.34L173.34 371.39L173.58 372.42L173.82 373.44L174.08 374.45L174.33 375.45L174.59 376.44L174.85 377.42L175.12 378.39L175.39 379.35L175.66 380.3L175.94 381.24L176.22 382.16L176.51 383.08L176.8 383.98L177.09 384.88L177.39 385.78L177.7 386.68L178.01 387.58L178.32 388.48L178.64 389.37L178.97 390.27L179.3 391.16L179.64 392.06L179.98 392.95L180.33 393.85L180.68 394.74L181.04 395.63L181.4 396.52L181.77 397.42L182.14 398.31L182.52 399.2L182.91 400.09L183.3 400.97L183.69 401.86L184.09 402.75L184.5 403.64L184.91 404.52L185.33 405.41L185.75 406.29L186.18 407.18L186.61 408.06L187.05 408.94L187.49 409.83L187.94 410.71L188.4 411.59L188.86 412.47L189.32 413.35L189.8 414.23L190.27 415.11L190.75 415.98L191.24 416.86L191.73 417.74L192.23 418.61L192.74 419.49L193.25 420.36L193.76 421.22L194.28 422.06L194.81 422.9L195.35 423.73L195.89 424.55L196.45 425.35L197.01 426.15L197.57 426.93L198.15 427.71L198.73 428.47L199.31 429.22L199.91 429.96L200.51 430.69L201.12 431.42L201.74 432.13L202.36 432.83L203 433.51L203.64 434.19L204.28 434.86L204.94 435.52L205.6 436.16L206.27 436.8L206.94 437.42L207.63 438.04L208.32 438.64L209.01 439.24L209.72 439.82L210.43 440.39L211.15 440.95L211.88 441.5L212.61 442.04L213.35 442.57L214.1 443.09L214.86 443.6L215.62 444.1L216.39 444.59L217.17 445.06L217.95 445.53L218.75 445.98L219.55 446.43L220.35 446.86L221.16 447.28L221.98 447.69L222.81 448.09L223.64 448.48L224.48 448.86L225.33 449.22L226.18 449.58L227.04 449.92L227.91 450.25L228.78 450.57L229.66 450.88L230.55 451.18L231.44 451.47L232.34 451.74L233.24 452.01L234.16 452.26L235.08 452.5L236 452.73L236.94 452.95L237.87 453.16L238.82 453.35L239.77 453.54L240.73 453.71L241.7 453.88L242.67 454.03L243.65 454.17L244.64 454.3L245.63 454.41L246.63 454.52L247.64 454.62L248.65 454.7L249.67 454.77L250.7 454.84L251.73 454.89L252.77 454.93L253.82 454.95L254.87 454.97L255.93 454.98L256.99 454.97L258.04 454.95L259.09 454.93L260.13 454.89L261.16 454.84L262.19 454.77L263.22 454.7L264.23 454.62L265.24 454.52L266.25 454.41L267.25 454.29L268.24 454.16L269.23 454.02L270.21 453.87L271.18 453.71L272.15 453.53L273.11 453.35L274.07 453.15L275.02 452.94L275.97 452.72L276.91 452.49L277.84 452.25L278.77 452L279.69 451.73L280.61 451.46L281.52 451.17L282.42 450.87L283.32 450.57L284.22 450.24L285.1 449.91L285.98 449.57L286.86 449.22L287.73 448.85L288.59 448.48L289.45 448.09L290.3 447.69L291.15 447.28L291.99 446.86L292.82 446.43L293.65 445.98L294.47 445.53L295.28 445.06L296.08 444.59L296.88 444.1L297.66 443.6L298.44 443.09L299.21 442.57L299.98 442.04L300.73 441.5L301.48 440.95L302.22 440.39L302.95 439.82L303.67 439.24L304.39 438.64L305.1 438.04L305.8 437.42L306.49 436.8L307.17 436.16L307.85 435.52L308.51 434.86L309.17 434.19L309.83 433.51L310.47 432.83L311.11 432.13L311.73 431.42L312.35 430.69L312.97 429.96L313.57 429.22L314.17 428.47L314.75 427.71L315.33 426.93L315.91 426.15L316.47 425.35L317.03 424.55L317.58 423.73L318.12 422.9L318.65 422.06L319.18 421.22L319.69 420.36L320.2 419.49L320.71 418.61L321.2 417.74L321.7 416.86L322.18 415.99L322.67 415.11L323.15 414.23L323.62 413.36L324.09 412.48L324.56 411.6L325.02 410.72L325.47 409.84L325.92 408.95L326.37 408.07L326.81 407.19L327.25 406.3L327.68 405.42L328.11 404.54L328.53 403.65L328.95 402.76L329.37 401.88L329.78 400.99L330.18 400.1L330.58 399.21L330.98 398.32L331.37 397.43L331.75 396.54L332.14 395.65L332.51 394.76L332.88 393.86L333.25 392.97L333.62 392.08L333.97 391.18L334.33 390.29L334.68 389.39L335.02 388.49L335.36 387.6L335.7 386.7L336.03 385.8L336.35 384.9L336.67 384L336.99 383.09L337.3 382.18L337.61 381.25L337.92 380.32L338.22 379.37L338.51 378.41L338.81 377.44L339.1 376.46L339.38 375.47L339.66 374.47L339.94 373.46L340.21 372.44L340.48 371.4L340.75 370.36L341.01 369.31L341.26 368.24L341.52 367.17L341.77 366.08L342.01 364.98L342.25 363.88L342.49 362.76L342.72 361.63L342.95 360.49L343.18 359.34L343.4 358.18L343.61 357.01L343.83 355.83L344.04 354.64L344.24 353.43L344.44 352.22L344.64 351L344.83 349.76L345.02 348.52L345.21 347.26L345.39 346L345.56 344.72L345.74 343.43L345.9 342.13L346.07 340.82L346.23 339.5L346.39 338.18L346.54 336.87L346.69 335.57L346.84 334.28L346.99 333L347.13 331.72L347.27 330.46L347.4 329.21L347.53 327.96L347.66 326.72L347.79 325.5L347.91 324.28L348.03 323.07L348.14 321.87L348.25 320.69L348.36 319.51L348.46 318.33L348.57 317.17L348.66 316.02L348.76 314.88L348.85 313.75L348.94 312.62L349.02 311.51L349.1 310.4L349.18 309.31L349.26 308.22L349.33 307.15L349.4 306.08L349.46 305.02L349.53 303.97L349.58 302.93L349.64 301.9L349.69 300.88L349.74 299.87L349.79 298.87L349.83 297.88L349.87 296.89L349.9 295.92L349.94 294.96L349.97 294L349.99 293.05L350.02 292.08L350.04 291.11L350.06 290.13L350.09 289.14L350.11 288.15L350.13 287.14L350.15 286.12L350.17 285.1L350.19 284.07L350.21 283.03L350.23 281.98L350.25 280.92L350.26 279.85L350.28 278.77L350.3 277.69L350.31 276.59L350.32 275.49L350.34 274.38L350.35 273.26L350.36 272.13L350.38 270.99L350.39 269.84L350.4 268.69L350.41 267.52L350.42 266.35L350.43 265.17L350.43 263.98L350.44 262.78L350.45 261.57L350.45 260.35L350.46 259.13L350.46 257.89L350.47 256.65L350.47 255.4L350.47 254.14L350.48 252.87L350.48 251.59L350.48 250.3L350.48 249.01L350.48 246.96L350.47 244.93L350.46 242.91L350.45 240.91L350.43 238.91L350.41 236.93L350.38 234.96L350.35 233L350.32 231.06L350.28 229.13L350.24 227.21L350.19 225.3L350.14 223.41L350.09 221.53L350.03 219.66L349.97 217.8L349.9 215.96L349.84 214.12L349.76 212.3L349.68 210.5L349.6 208.7L349.52 206.92L349.43 205.15L349.33 203.4L349.24 201.65L349.13 199.92L349.03 198.2L348.92 196.5L348.8 194.8L348.69 193.12L348.57 191.45L348.44 189.79L348.31 188.15L348.18 186.52L348.04 184.9L347.9 183.29L347.75 181.7L347.6 180.12L347.45 178.55L347.29 176.99L347.13 175.44L346.95 173.9L346.78 172.35L346.59 170.81L346.39 169.27L346.19 167.73L345.98 166.19L345.76 164.66L345.54 163.12L345.3 161.59L345.06 160.06L344.81 158.53L344.55 157.01L344.28 155.48L344.01 153.96L343.72 152.44L343.43 150.92L343.14 149.4L342.83 147.89L342.51 146.37L342.19 144.86L341.86 143.35L341.52 141.84L341.18 140.34L340.82 138.83L340.46 137.33L340.09 135.83L339.71 134.33L339.32 132.83L338.93 131.34L338.52 129.85L338.11 128.36L337.69 126.87L337.27 125.38L336.83 123.89L336.39 122.41L335.94 120.93L335.48 119.45L335.01 117.97L334.54 116.5L334.06 115.03L333.56 113.58L333.05 112.15L332.53 110.73L331.99 109.33L331.45 107.95L330.89 106.59L330.32 105.24L329.73 103.91L329.13 102.59L328.52 101.29L327.9 100.01L327.26 98.75L326.62 97.5L325.95 96.27L325.28 95.06L324.6 93.86L323.9 92.68L323.19 91.52L322.46 90.37L321.72 89.24L320.98 88.13L320.21 87.04L319.44 85.96L318.65 84.89L317.85 83.85L317.04 82.82L316.22 81.81L315.38 80.82L314.53 79.84L313.67 78.88L312.79 77.93L311.9 77.01L311 76.1L310.09 75.2L309.17 74.33L308.23 73.47L307.28 72.63L306.32 71.8L305.34 70.99L304.35 70.2L303.35 69.43L302.33 68.68L301.3 67.95L300.26 67.25L299.21 66.56L298.14 65.89L297.07 65.24L295.98 64.61L294.87 64L293.76 63.41L292.63 62.84L291.49 62.29L290.33 61.76L289.17 61.25L287.99 60.76L286.8 60.29L285.6 59.84L284.38 59.41L283.15 59L281.91 58.61L280.66 58.24L279.39 57.89L278.11 57.56L276.82 57.24L275.52 56.95L274.2 56.68L272.87 56.43L271.53 56.2L270.17 55.99L268.81 55.8L267.43 55.63L266.03 55.48L264.63 55.35L263.21 55.24L261.78 55.15L260.34 55.08L258.88 55.03L257.41 55L255.93 54.99L254.45 55L252.99 55.03Z" id="bUISp303"></path></defs><g><g><g><use xlink:href="#bUISp303" opacity="1" fill="#ea3939" fill-opacity="1"></use><g><use xlink:href="#bUISp303" opacity="1" fill-opacity="0" stroke="#000000" stroke-width="1" stroke-opacity="0"></use></g></g></g></g></svg>