<?xml version="1.0" encoding="UTF-8" standalone="no"?>
<!DOCTYPE svg PUBLIC "-//W3C//DTD SVG 1.1//EN" "http://www.w3.org/Graphics/SVG/1.1/DTD/svg11.dtd">
<svg version="1.1" xmlns="http://www.w3.org/2000/svg" xmlns:xlink="http://www.w3.org/1999/xlink" preserveAspectRatio="xMidYMid meet" viewBox="0 0 512 512" width="100" height="100"><defs><path d="M26.25 476.04C26.25 488.45 29.58 497.94 35.53 503.9C35.63 503.99 36.15 504.44 37.07 505.24C53.51 488.79 135.73 406.58 283.7 258.61C283.7 255.3 283.7 253.46 283.7 253.09C135.61 105.09 53.32 22.86 36.87 6.41C36.87 6.41 35.33 7.75 35.33 7.75C29.58 13.95 26.25 23.44 26.25 35.85C26.25 79.88 26.25 432.02 26.25 476.04Z" id="c2vyAGy2Go"></path><linearGradient id="gradientm1WOHFBAEd" gradientUnits="userSpaceOnUse" x1="261.58" y1="31.1" x2="-72.51" y2="365.19"><stop style="stop-color: #00a0ff;stop-opacity: 1" offset="0%"></stop><stop style="stop-color: #00a1ff;stop-opacity: 1" offset="0.6569999%"></stop><stop style="stop-color: #00beff;stop-opacity: 1" offset="26.009999999999998%"></stop><stop style="stop-color: #00d2ff;stop-opacity: 1" offset="51.22%"></stop><stop style="stop-color: #00dfff;stop-opacity: 1" offset="76.03999999999999%"></stop><stop style="stop-color: #00e3ff;stop-opacity: 1" offset="100%"></stop></linearGradient><path d="M283.5 253.04L365.77 170.78C366.84 171.44 367.44 171.81 367.56 171.88C425.94 205.06 458.38 223.49 464.87 227.18C492.71 242.86 492.71 268.78 464.87 284.67C455.13 290.2 377.29 334.44 367.56 339.97C367.56 339.97 365.77 341.06 365.77 341.06C354.81 330.1 327.38 302.67 283.5 258.81C283.5 258.04 283.5 256.12 283.5 253.04Z" id="d26j1U5oY"></path><linearGradient id="gradienta9hkhzANr" gradientUnits="userSpaceOnUse" x1="501.18" y1="255.92" x2="19.48" y2="255.92"><stop style="stop-color: #ffe000;stop-opacity: 1" offset="0%"></stop><stop style="stop-color: #ffbd00;stop-opacity: 1" offset="40.87%"></stop><stop style="stop-color: #ffa500;stop-opacity: 1" offset="77.53999999999999%"></stop><stop style="stop-color: #ff9c00;stop-opacity: 1" offset="100%"></stop></linearGradient><path d="M367.56 339.97C317.13 289.54 289.11 261.53 283.5 255.92C134.61 404.83 51.88 487.55 35.33 504.1C44.42 513.83 59.67 514.92 76.69 505.44C96.08 494.4 193.04 439.25 367.56 339.97" id="aNpSt74ay"></path><linearGradient id="gradientc261Qr1vnV" gradientUnits="userSpaceOnUse" x1="321.85" y1="301.65" x2="-131.21" y2="754.71"><stop style="stop-color: #ff3a44;stop-opacity: 1" offset="0%"></stop><stop style="stop-color: #c31162;stop-opacity: 1" offset="100%"></stop></linearGradient><path d="M35.33 8C51.88 24.53 134.61 107.17 283.5 255.92C291.91 247.52 359.15 180.29 367.56 171.88C193.04 72.74 96.08 17.67 76.69 6.66C59.67 -3.07 44.37 -1.73 35.33 8Z" id="d1uJtGiUv1"></path><linearGradient id="gradientcaabnEYN2" gradientUnits="userSpaceOnUse" x1="-27.16" y1="-138.66" x2="175.15" y2="63.64"><stop style="stop-color: #32a071;stop-opacity: 1" offset="0%"></stop><stop style="stop-color: #2da771;stop-opacity: 1" offset="6.8500000000000005%"></stop><stop style="stop-color: #15cf74;stop-opacity: 1" offset="47.620000000000005%"></stop><stop style="stop-color: #06e775;stop-opacity: 1" offset="80.08999999999999%"></stop><stop style="stop-color: #00f076;stop-opacity: 1" offset="100%"></stop></linearGradient></defs><g><g><g><use xlink:href="#c2vyAGy2Go" opacity="1" fill="url(#gradientm1WOHFBAEd)"></use><g><use xlink:href="#c2vyAGy2Go" opacity="1" fill-opacity="0" stroke="#000000" stroke-width="1" stroke-opacity="0"></use></g></g><g><use xlink:href="#d26j1U5oY" opacity="1" fill="url(#gradienta9hkhzANr)"></use><g><use xlink:href="#d26j1U5oY" opacity="1" fill-opacity="0" stroke="#000000" stroke-width="1" stroke-opacity="0"></use></g></g><g><use xlink:href="#aNpSt74ay" opacity="1" fill="url(#gradientc261Qr1vnV)"></use><g><use xlink:href="#aNpSt74ay" opacity="1" fill-opacity="0" stroke="#000000" stroke-width="1" stroke-opacity="0"></use></g></g><g><use xlink:href="#d1uJtGiUv1" opacity="1" fill="url(#gradientcaabnEYN2)"></use><g><use xlink:href="#d1uJtGiUv1" opacity="1" fill-opacity="0" stroke="#000000" stroke-width="1" stroke-opacity="0"></use></g></g></g></g></svg>