<?xml version="1.0" ?><!DOCTYPE svg  PUBLIC '-//W3C//DTD SVG 1.1//EN'  'http://www.w3.org/Graphics/SVG/1.1/DTD/svg11.dtd'><svg enable-background="new 0 0 100 100" height="100px" id="Layer_1" version="1.1" viewBox="0 0 100 100" width="100px" xml:space="preserve" xmlns="http://www.w3.org/2000/svg" xmlns:xlink="http://www.w3.org/1999/xlink"><g><circle cx="50" cy="49.999" fill="#F05825" r="45"/><g><path d="M67.167,44.212c-1.298,0-2.487,0.455-3.423,1.209c-3.312-2.064-7.517-3.307-12.022-3.568l2.352-7.365    l6.459,1.508c0.17,2.33,2.137,4.174,4.529,4.174c2.505,0,4.546-2.02,4.546-4.502c0-2.48-2.041-4.501-4.546-4.501    c-1.751,0-3.274,0.988-4.032,2.431l-7.506-1.75c-0.628-0.147-1.264,0.211-1.46,0.822l-2.918,9.139    c-4.854,0.117-9.418,1.365-12.975,3.549c-0.921-0.715-2.081-1.145-3.34-1.145c-2.997,0-5.434,2.414-5.434,5.385    c0,1.834,0.934,3.457,2.353,4.428c-0.06,0.426-0.09,0.857-0.09,1.291c0,3.711,2.175,7.164,6.129,9.719    c3.788,2.451,8.802,3.801,14.118,3.801c5.315,0,10.331-1.35,14.119-3.801c3.952-2.555,6.129-6.008,6.129-9.719    c0-0.395-0.028-0.789-0.078-1.18c1.516-0.955,2.523-2.633,2.523-4.539C72.601,46.626,70.163,44.212,67.167,44.212z M65.062,33.612    c1.146,0,2.077,0.923,2.077,2.055c0,1.135-0.932,2.057-2.077,2.057c-1.144,0-2.073-0.922-2.073-2.057    C62.988,34.535,63.918,33.612,65.062,33.612z M40.215,52.925c0-1.672,1.418-3.076,3.105-3.076c1.688,0,3.061,1.404,3.061,3.076    c0,1.676-1.372,3.033-3.061,3.033C41.633,55.958,40.215,54.601,40.215,52.925z M57.439,61.841    c-1.573,1.559-3.998,2.316-7.419,2.316c-0.006,0-0.014-0.002-0.023-0.002c-0.006,0-0.015,0.002-0.024,0.002    c-3.418,0-5.843-0.758-7.414-2.316c-0.484-0.479-0.484-1.252,0-1.729c0.481-0.479,1.263-0.479,1.745,0    c1.083,1.074,2.94,1.598,5.669,1.598c0.01,0,0.019,0.002,0.024,0.002c0.01,0,0.018-0.002,0.023-0.002    c2.733,0,4.588-0.523,5.674-1.598c0.483-0.48,1.266-0.479,1.745,0C57.923,60.589,57.923,61.364,57.439,61.841z M56.724,55.958    c-1.689,0-3.11-1.357-3.11-3.033c0-1.674,1.421-3.076,3.11-3.076s3.059,1.402,3.059,3.076    C59.782,54.601,58.413,55.958,56.724,55.958z" fill="#FFFFFF"/></g></g></svg>